<svg width="63" height="71" viewBox="0 0 63 71" fill="none" xmlns="http://www.w3.org/2000/svg">
<path d="M20.0909 0.102055C24.0909 -1.39796 59.0909 14.1021 60.0909 16.1021C61.0909 18.1021 63.5 47 62.5909 50.1021C61.6818 53.2041 30.5909 70.6021 28.0909 70.1021C25.5909 69.6021 1.59089 49.1021 0.0909197 45.1021C-1.40905 41.1021 16.0909 1.60207 20.0909 0.102055Z" fill="#64B5F6"/>
<path d="M31.2188 41.6172L34.6641 23.4062H39.9199L34.2422 49H28.9336L24.7676 31.8789L20.6016 49H15.293L9.61523 23.4062H14.8711L18.334 41.582L22.5527 23.4062H27.0176L31.2188 41.6172ZM52.875 49C52.6406 48.543 52.4707 47.9746 52.3652 47.2949C51.1348 48.666 49.5352 49.3516 47.5664 49.3516C45.7031 49.3516 44.1562 48.8125 42.9258 47.7344C41.707 46.6562 41.0977 45.2969 41.0977 43.6562C41.0977 41.6406 41.8418 40.0938 43.3301 39.0156C44.8301 37.9375 46.9922 37.3926 49.8164 37.3809H52.1543V36.291C52.1543 35.4121 51.9258 34.709 51.4688 34.1816C51.0234 33.6543 50.3145 33.3906 49.3418 33.3906C48.4863 33.3906 47.8125 33.5957 47.3203 34.0059C46.8398 34.416 46.5996 34.9785 46.5996 35.6934H41.5195C41.5195 34.5918 41.8594 33.5723 42.5391 32.6348C43.2188 31.6973 44.1797 30.9648 45.4219 30.4375C46.6641 29.8984 48.0586 29.6289 49.6055 29.6289C51.9492 29.6289 53.8066 30.2207 55.1777 31.4043C56.5605 32.5762 57.252 34.2285 57.252 36.3613V44.6055C57.2637 46.4102 57.5156 47.7754 58.0078 48.7012V49H52.875ZM48.6738 45.4668C49.4238 45.4668 50.1152 45.3027 50.748 44.9746C51.3809 44.6348 51.8496 44.1836 52.1543 43.6211V40.3516H50.2559C47.7129 40.3516 46.3594 41.2305 46.1953 42.9883L46.1777 43.2871C46.1777 43.9199 46.4004 44.4414 46.8457 44.8516C47.291 45.2617 47.9004 45.4668 48.6738 45.4668Z" fill="white"/>
</svg>
