<svg width="150" height="71" viewBox="0 0 150 71" fill="none" xmlns="http://www.w3.org/2000/svg">
<path d="M20.0909 0.102055C24.0909 -1.39796 59.0909 14.1021 60.0909 16.1021C61.0909 18.1021 63.5 47 62.5909 50.1021C61.6818 53.2041 30.5909 70.6021 28.0909 70.1021C25.5909 69.6021 1.59089 49.1021 0.0909197 45.1021C-1.40905 41.1021 16.0909 1.60207 20.0909 0.102055Z" fill="#64B5F6"/>
<path d="M31.2188 41.6172L34.6641 23.4062H39.9199L34.2422 49H28.9336L24.7676 31.8789L20.6016 49H15.293L9.61523 23.4062H14.8711L18.334 41.582L22.5527 23.4062H27.0176L31.2188 41.6172ZM52.875 49C52.6406 48.543 52.4707 47.9746 52.3652 47.2949C51.1348 48.666 49.5352 49.3516 47.5664 49.3516C45.7031 49.3516 44.1562 48.8125 42.9258 47.7344C41.707 46.6562 41.0977 45.2969 41.0977 43.6562C41.0977 41.6406 41.8418 40.0938 43.3301 39.0156C44.8301 37.9375 46.9922 37.3926 49.8164 37.3809H52.1543V36.291C52.1543 35.4121 51.9258 34.709 51.4688 34.1816C51.0234 33.6543 50.3145 33.3906 49.3418 33.3906C48.4863 33.3906 47.8125 33.5957 47.3203 34.0059C46.8398 34.416 46.5996 34.9785 46.5996 35.6934H41.5195C41.5195 34.5918 41.8594 33.5723 42.5391 32.6348C43.2188 31.6973 44.1797 30.9648 45.4219 30.4375C46.6641 29.8984 48.0586 29.6289 49.6055 29.6289C51.9492 29.6289 53.8066 30.2207 55.1777 31.4043C56.5605 32.5762 57.252 34.2285 57.252 36.3613V44.6055C57.2637 46.4102 57.5156 47.7754 58.0078 48.7012V49H52.875ZM48.6738 45.4668C49.4238 45.4668 50.1152 45.3027 50.748 44.9746C51.3809 44.6348 51.8496 44.1836 52.1543 43.6211V40.3516H50.2559C47.7129 40.3516 46.3594 41.2305 46.1953 42.9883L46.1777 43.2871C46.1777 43.9199 46.4004 44.4414 46.8457 44.8516C47.291 45.2617 47.9004 45.4668 48.6738 45.4668Z" fill="white"/>
<path d="M89.2734 36.7832C89.2734 39.1738 88.8867 41.2539 88.1133 43.0234C87.3398 44.7812 86.2676 46.1934 84.8965 47.2598L89.1504 50.5996L85.793 53.5703L80.3438 49.1934C79.7227 49.2988 79.0781 49.3516 78.4102 49.3516C76.2891 49.3516 74.3965 48.8418 72.7324 47.8223C71.0684 46.8027 69.7793 45.3496 68.8652 43.4629C67.9512 41.5645 67.4883 39.3848 67.4766 36.9238V35.6582C67.4766 33.1387 67.9277 30.9238 68.8301 29.0137C69.7441 27.0918 71.0273 25.6211 72.6797 24.6016C74.3438 23.5703 76.2422 23.0547 78.375 23.0547C80.5078 23.0547 82.4004 23.5703 84.0527 24.6016C85.7168 25.6211 87 27.0918 87.9023 29.0137C88.8164 30.9238 89.2734 33.1328 89.2734 35.6406V36.7832ZM83.9297 35.623C83.9297 32.9395 83.4492 30.9004 82.4883 29.5059C81.5273 28.1113 80.1562 27.4141 78.375 27.4141C76.6055 27.4141 75.2402 28.1055 74.2793 29.4883C73.3184 30.8594 72.832 32.875 72.8203 35.5352V36.7832C72.8203 39.3965 73.3008 41.4238 74.2617 42.8652C75.2227 44.3066 76.6055 45.0273 78.4102 45.0273C80.1797 45.0273 81.5391 44.3359 82.4883 42.9531C83.4375 41.5586 83.918 39.5312 83.9297 36.8711V35.623ZM104.197 47.0664C102.943 48.5898 101.209 49.3516 98.9941 49.3516C96.9551 49.3516 95.3965 48.7656 94.3184 47.5938C93.252 46.4219 92.707 44.7051 92.6836 42.4434V29.9805H97.7637V42.2676C97.7637 44.248 98.666 45.2383 100.471 45.2383C102.193 45.2383 103.377 44.6406 104.021 43.4453V29.9805H109.119V49H104.338L104.197 47.0664ZM118.312 49H113.215V29.9805H118.312V49ZM112.916 25.0586C112.916 24.2969 113.168 23.6699 113.672 23.1777C114.188 22.6855 114.885 22.4395 115.764 22.4395C116.631 22.4395 117.322 22.6855 117.838 23.1777C118.354 23.6699 118.611 24.2969 118.611 25.0586C118.611 25.832 118.348 26.4648 117.82 26.957C117.305 27.4492 116.619 27.6953 115.764 27.6953C114.908 27.6953 114.217 27.4492 113.689 26.957C113.174 26.4648 112.916 25.832 112.916 25.0586ZM128.35 44.9043H137.648V49H121.863V45.9062L130.811 34.0938H122.127V29.9805H137.367V32.9863L128.35 44.9043Z" fill="black"/>
<path d="M141.094 46.5039C141.094 45.6953 141.363 45.0391 141.902 44.5352C142.453 44.0312 143.139 43.7793 143.959 43.7793C144.791 43.7793 145.477 44.0312 146.016 44.5352C146.566 45.0391 146.842 45.6953 146.842 46.5039C146.842 47.3008 146.572 47.9512 146.033 48.4551C145.494 48.9473 144.803 49.1934 143.959 49.1934C143.127 49.1934 142.441 48.9473 141.902 48.4551C141.363 47.9512 141.094 47.3008 141.094 46.5039Z" fill="#64B5F6"/>
</svg>
